<?xml version="1.0" encoding="utf-8"?>
<!-- Generator: Adobe Illustrator 16.0.0, SVG Export Plug-In . SVG Version: 6.00 Build 0)  -->
<!DOCTYPE svg PUBLIC "-//W3C//DTD SVG 1.1//EN" "http://www.w3.org/Graphics/SVG/1.1/DTD/svg11.dtd">
<svg version="1.1" id="图层_1" xmlns="http://www.w3.org/2000/svg" xmlns:xlink="http://www.w3.org/1999/xlink" x="0px" y="0px"
	 width="100px" height="300px" viewBox="0 0 100 300" enable-background="new 0 0 100 300" xml:space="preserve">
<g>
	<path fill="#FFFFFF" d="M54.75,63.486c1.767,4.333,3.666,7.992,5.7,10.975c2.032,2.983,3.416,4.475,4.149,4.475
		c0.633,0,1.25-0.733,1.851-2.2c0.6-1.467,0.95-3.033,1.05-4.7c0.066-0.8,0.2-1.2,0.4-1.2c0.3,0,0.449,1.018,0.449,3.05
		c0,1.067-0.059,1.942-0.175,2.625C68.058,77.194,68,77.869,68,78.536c0,1.9,0.116,3.366,0.35,4.4c0.101,0.4,0.15,0.733,0.15,1
		c0,0.667-0.25,1-0.75,1c-1.233,0-3.075-1.3-5.525-3.9c-2.449-2.6-4.642-5.8-6.574-9.6c-1.668-3.266-2.884-5.516-3.65-6.75
		c-0.434,0.167-1.242,0.625-2.425,1.375c-1.184,0.75-2.125,1.375-2.825,1.875c-0.867,0.634-1.643,0.95-2.325,0.95
		c-0.684,0-1.167-0.167-1.45-0.5c-0.283-0.333-0.425-0.85-0.425-1.55c0-0.7,0.101-1.133,0.3-1.3c0.2-0.167,0.508-0.25,0.926-0.25
		c0.416,0,1.016-0.167,1.8-0.5c0.782-0.333,2.375-1.116,4.774-2.35c-0.699-1.266-1.583-2.016-2.649-2.25
		c-2.5,0.534-4.983,0.984-7.45,1.35c-1.167,0.2-1.75,0.583-1.75,1.15c0,0.567,0.441,1.25,1.325,2.05
		c0.883,0.8,1.517,1.592,1.899,2.375S42.3,68.72,42.3,69.586c0,0.867-0.033,1.6-0.1,2.2c-0.067,0.6-0.101,1.05-0.101,1.35
		c0,0.3,0.092,0.45,0.275,0.45c0.183,0,0.533-0.166,1.05-0.5c0.517-0.333,1.491-0.883,2.925-1.65
		c1.434-0.766,2.608-1.358,3.525-1.775c0.916-0.417,1.558-0.758,1.925-1.025c0.366-0.267,0.55-0.55,0.55-0.85s-0.517-0.833-1.55-1.6
		c0.866,0.067,1.566,0.359,2.101,0.875c0.532,0.517,0.8,1.125,0.8,1.825c0,1.567-1.101,2.9-3.3,4c-1.268,0.633-2.759,1.8-4.476,3.5
		c-1.717,1.7-2.708,3.008-2.975,3.925c-0.268,0.917-0.601,1.375-1,1.375c-0.4,0-0.959-0.192-1.675-0.575
		c-0.718-0.384-1.259-1.059-1.625-2.025c-0.367-0.967-0.55-1.858-0.55-2.675s0.066-1.458,0.2-1.925c0.5-1.6,0.75-2.875,0.75-3.825
		s-0.292-1.716-0.875-2.3c-0.583-0.583-1.083-1.35-1.5-2.3c-0.417-0.95-0.625-1.9-0.625-2.85c0-0.95,0.217-1.357,0.65-1.225
		c0.133-0.633,0.808-1.308,2.025-2.025c1.216-0.716,3.725-2.041,7.525-3.975c1-0.533,1.75-1,2.25-1.4
		c0.5-0.4,0.857-0.975,1.075-1.725c0.216-0.75,0.657-1.125,1.325-1.125c0.5-0.333,0.933-0.8,1.3-1.4c-2.367,0.734-4.601,1.7-6.7,2.9
		c-0.233,1.067-0.45,1.85-0.65,2.35c-0.199,0.5-0.434,0.75-0.699,0.75c-0.268,0-0.734-0.416-1.4-1.25c-1.533,1.2-2.917,1.8-4.15,1.8
		c-1.833,0-3.175-0.667-4.025-2c-0.85-1.333-1.275-2.117-1.275-2.35c0-0.233,0.075-0.35,0.225-0.35s0.341,0.067,0.575,0.2
		c0.233,0.133,0.5,0.2,0.8,0.2c0.733,0,2.833-0.666,6.3-2c0.366-1.666,0.583-3.4,0.649-5.2c0.033-0.667,0.267-1,0.7-1
		c0.433,0,1.2,0.684,2.3,2.05c0.7-1.6,1.15-2.4,1.351-2.4c0.066,0,0.1,0.075,0.1,0.225s-0.033,0.358-0.1,0.625
		c-0.167,0.833-0.25,2.184-0.25,4.05c2.566-0.733,4.133-1.15,4.7-1.25c-0.301-0.2-0.884-0.616-1.75-1.25
		c1.766,0.5,2.899,0.75,3.399,0.75s0.851-0.016,1.05-0.05c0.2-0.9,0.301-1.9,0.301-3s-0.259-2.058-0.775-2.875
		c-0.518-0.816-1.225-1.225-2.125-1.225l-0.85,0.1c-0.301,0-0.45-0.066-0.45-0.2c0-0.133,0.232-0.308,0.7-0.525
		c0.466-0.216,0.899-0.325,1.3-0.325c1.133,0,2.508,0.393,4.125,1.175C57.191,41.045,58,42.003,58,43.136
		c0,0.633-0.25,1.85-0.75,3.65c0.533,0,1.017-0.066,1.45-0.2c0.433-0.133,0.85-0.2,1.25-0.2c1.133,0,2.107,0.417,2.925,1.25
		c0.816,0.833,1.225,1.517,1.225,2.05c0,0.234-0.074,0.384-0.225,0.45c-0.15,0.067-0.768,0.1-1.85,0.1
		c-1.084,0-2.067-0.125-2.95-0.375c-0.884-0.25-1.843-0.358-2.875-0.325c-0.733,1.367-2.034,2.3-3.9,2.8
		c0.667,0.634,1.183,1.393,1.55,2.275c0.367,0.883,0.551,1.575,0.551,2.075s-0.176,0.875-0.525,1.125s-0.893,0.525-1.625,0.825
		c0.732,0.967,1.633,1.45,2.7,1.45c0.333,0,0.657-0.05,0.975-0.15c0.316-0.1,0.642-0.15,0.976-0.15c0.332,0,0.808,0.259,1.425,0.775
		c0.616,0.517,0.925,0.884,0.925,1.1c0,0.217-0.533,0.458-1.6,0.725C56.583,62.653,55.616,63.02,54.75,63.486z"/>
	<path fill="#FFFFFF" d="M37.4,109.335c0.633-2.167,1.175-3.908,1.625-5.225c0.45-1.316,0.841-2.208,1.175-2.675
		c0.333-0.466,0.767-0.841,1.3-1.125c0.533-0.283,1.075-0.425,1.625-0.425s1.041,0.143,1.475,0.425
		c0.434,0.284,0.733,0.425,0.9,0.425c0.166,0,0.316-0.1,0.45-0.3c1.3-1.767,2.25-2.908,2.85-3.425
		c0.601-0.516,1.167-0.775,1.7-0.775s1.1,0.067,1.7,0.2c0.6,0.133,1.149,0.2,1.649,0.2s1.15-0.232,1.95-0.7
		c0.8-0.466,1.616-0.7,2.45-0.7c0.833,0,2.083,0.525,3.75,1.575c1.666,1.05,2.5,2.725,2.5,5.025l-0.05,2.05
		c0,1.934,0.107,5.842,0.325,11.725c0.216,5.884,0.383,9.6,0.5,11.15c0.116,1.55,0.175,2.825,0.175,3.825
		c0,2.366-0.4,4.325-1.2,5.875c-0.8,1.551-1.317,2.325-1.55,2.325c-0.233,0-0.559-0.384-0.976-1.149
		c-0.417-0.768-1.642-2.275-3.675-4.525s-3.667-3.891-4.899-4.925c-0.101,1.6-0.226,3.216-0.375,4.85
		c-0.15,1.633-0.259,2.525-0.325,2.674c-0.067,0.15-0.175,0.226-0.325,0.226s-0.309-0.25-0.475-0.75
		c-0.168-0.5-0.351-2.05-0.551-4.65c-0.199-2.6-0.333-5.267-0.399-8c-0.768,0.267-2.617,1.467-5.55,3.6
		c-0.367,0.268-0.775,0.4-1.226,0.4s-0.867-0.25-1.25-0.75c-0.384-0.5-0.575-1.066-0.575-1.7c0-0.633,0.092-1.191,0.275-1.675
		c0.183-0.483,0.633-0.691,1.35-0.625c0.717,0.067,1.142,0.067,1.275,0l-0.3-1.85c-0.567-0.8-0.851-1.441-0.851-1.925
		c0-0.482,0.25-0.758,0.75-0.825c0.033-0.333,0.051-0.833,0.051-1.5c-0.634-0.5-0.95-1-0.95-1.5s0.35-0.816,1.05-0.95
		c0.033-0.466,0.183-1.216,0.45-2.25c-1.4-0.066-2.483-0.3-3.25-0.7c-0.768-0.4-1.15-0.758-1.15-1.075
		c0-0.316,0.183-0.491,0.55-0.525c0.934-0.1,1.684-0.267,2.25-0.5c-0.133-1.167-0.392-2.191-0.774-3.075
		c-0.384-0.883-0.742-1.325-1.075-1.325c-0.634,0-1.242,0.692-1.825,2.075c-0.583,1.384-1.025,3.617-1.325,6.7
		c-0.3,3.083-0.467,5.925-0.5,8.525c-0.034,2.6-0.242,4.967-0.625,7.1c-0.384,2.133-0.75,3.2-1.1,3.2s-0.842-0.841-1.475-2.525
		c-0.633-1.683-0.95-2.9-0.95-3.65s0.066-1.375,0.2-1.875c0.533-1.866,0.8-4.65,0.8-8.35c0-1.933-0.134-3.383-0.4-4.35
		c-0.633-2.133-0.95-3.466-0.95-4c0-0.533,0.066-0.8,0.2-0.8c0.133,0,0.4,0.267,0.8,0.8c0.4,0.534,0.9,0.934,1.5,1.2
		C36.7,108.103,37.133,108.603,37.4,109.335z M50.5,119.885c0.066-0.8,0.05-1.55-0.05-2.25c-1.867,1.734-3.284,2.8-4.25,3.2
		l-0.15,0.85c0.767-0.167,1.366-0.375,1.8-0.625S49.166,120.419,50.5,119.885z M53.2,126.885c1.732,1.3,3.392,2.259,4.975,2.875
		c1.583,0.617,2.542,0.925,2.875,0.925s0.517-0.117,0.55-0.35c0.033-0.233,0.051-1.591,0.051-4.075c0-2.482-0.067-5.466-0.2-8.95
		c-0.134-3.483-0.309-6.917-0.525-10.3c-0.217-3.383-0.375-5.433-0.475-6.15c-0.101-0.716-0.351-1.375-0.75-1.975
		c-0.4-0.6-0.709-0.975-0.925-1.125c-0.218-0.15-0.426-0.225-0.625-0.225c-0.601,0-1.409,0.533-2.426,1.6
		c-1.017,1.067-1.691,1.6-2.024,1.6c-0.334,0-0.75-0.233-1.25-0.7c-1.2-1.1-2.143-1.65-2.825-1.65c-0.684,0-1.292,0.742-1.825,2.225
		c-0.533,1.484-0.934,3.542-1.2,6.175c4.367-2.066,6.9-3.1,7.601-3.1c0.5,0,1.107,0.242,1.825,0.725
		c0.716,0.483,1.074,0.934,1.074,1.35c0,0.417-0.1,0.768-0.3,1.05c-0.2,0.284-0.483,0.4-0.85,0.35
		c-0.367-0.05-0.742-0.075-1.125-0.075c-0.384,0-0.942,0.083-1.675,0.25c0.399,0.9,0.6,1.759,0.6,2.575
		c0,0.817-0.059,1.583-0.175,2.3c-0.117,0.717-0.175,3.042-0.175,6.975c0.3-0.066,0.582-0.1,0.85-0.1c0.9,0,1.35,0.333,1.35,1
		c0,0.333-0.108,0.659-0.324,0.975c-0.218,0.317-0.859,0.559-1.926,0.725C53.35,123.019,53.3,124.719,53.2,126.885z M50.95,112.635
		c-1.601,1.667-2.867,2.768-3.8,3.3c-0.067,0.267-0.101,0.467-0.101,0.6c0.633-0.267,1.092-0.542,1.375-0.825
		c0.283-0.283,1.042-0.525,2.275-0.725L50.95,112.635z M51,109.835c-0.033-0.7-0.417-1.25-1.15-1.65c-0.967,0.4-1.699,1.1-2.199,2.1
		c0,0.533,0.016,0.883,0.05,1.05C48.633,110.436,49.732,109.936,51,109.835z"/>
	<path fill="#FFFFFF" d="M59.05,171.086c3.633-0.467,5.767-0.7,6.4-0.7c0.633,0,1.116-0.092,1.45-0.275
		c0.332-0.183,0.616-0.274,0.85-0.274c0.767,0,1.575,0.5,2.425,1.5c0.851,1,1.275,1.774,1.275,2.325c0,0.55-0.167,0.892-0.5,1.024
		c-0.334,0.134-0.843,0.2-1.525,0.2c-0.684,0-1.242-0.083-1.675-0.25c-1.1-0.4-4.05-0.6-8.85-0.6c-0.134,1.167-0.2,2.309-0.2,3.425
		c0,1.117,0.066,2.059,0.2,2.825c0.332,1.867,0.5,3.725,0.5,5.574c0,1.851-0.109,3.592-0.325,5.226
		c-0.218,1.633-0.425,2.616-0.625,2.95c-0.2,0.332-0.45,0.5-0.75,0.5c-0.5,0-0.992-0.742-1.476-2.226s-0.725-3.75-0.725-6.8
		s-0.067-6.741-0.2-11.075c-1.399,0.067-3.05,0.334-4.95,0.8c-0.699,1.168-1.559,2.459-2.574,3.875
		c-1.018,1.418-1.676,2.575-1.976,3.476c-0.6,1.934-1.342,3.491-2.225,4.675c-0.884,1.183-1.459,1.775-1.726,1.775
		s-0.533-0.593-0.8-1.775c-0.267-1.184-0.399-2.142-0.399-2.875c0-0.732,0.166-1.1,0.5-1.1c0.332,0,0.574-0.092,0.725-0.275
		c0.15-0.183,0.275-0.666,0.375-1.45c0.1-0.782,0.15-1.633,0.15-2.55c0-0.916-0.234-1.375-0.7-1.375c-0.8,0-3.117,0.884-6.95,2.65
		c-0.767,0.367-1.409,0.55-1.925,0.55c-0.518,0-1.084-0.458-1.7-1.375c-0.617-0.917-0.925-1.601-0.925-2.05
		c0-0.45,0.125-0.801,0.375-1.051s0.525-0.375,0.825-0.375c0.3,0,0.508,0.084,0.625,0.25c0.117,0.168,0.292,0.25,0.525,0.25
		c0.233,0,0.6-0.066,1.1-0.199l7.65-1.7c0.267-1.066,0.767-2.15,1.5-3.25c0.267-0.366,0.4-0.767,0.4-1.2c0-0.2,0.133-0.3,0.399-0.3
		s0.542,0.267,0.825,0.8s0.575,1.518,0.875,2.95l5.45-1.05c0.767-0.133,1.291-0.258,1.575-0.375c0.282-0.117,0.55-0.316,0.8-0.601
		c0.25-0.282,0.533-0.566,0.85-0.85s0.508-0.458,0.575-0.525c0-0.7-0.117-1.05-0.35-1.05c-0.233,0-0.992,0.108-2.275,0.325
		s-2.35,0.45-3.2,0.7c-0.85,0.25-1.524,0.375-2.024,0.375s-1.184-0.4-2.05-1.2c-0.867-0.8-1.534-1.583-2-2.351
		c-0.468-0.766-0.7-1.883-0.7-3.35s0.399-3.833,1.2-7.1c0.199-0.867,0.3-1.533,0.3-2s-0.075-0.816-0.226-1.051
		c-0.149-0.232-0.225-0.433-0.225-0.6c0-0.467,0.35-0.808,1.05-1.025c0.7-0.216,1.283-0.291,1.75-0.225
		c0.467,0.067,0.983,0.1,1.55,0.1s1.342-0.199,2.325-0.6s2.358-1.066,4.125-2c0.566-0.3,1.217-0.45,1.95-0.45
		c1.2,0,2.508,0.483,3.925,1.45s2.125,1.867,2.125,2.7c0,0.3-0.117,0.567-0.35,0.8c-0.233,0.233-0.742,1.009-1.525,2.325
		c-0.783,1.317-1.233,2.1-1.35,2.35c-0.117,0.25-0.175,0.525-0.175,0.825s0.05,0.575,0.149,0.825c0.101,0.25,0.15,0.434,0.15,0.55
		c0,0.117-0.084,0.175-0.25,0.175c-0.167,0-0.317-0.017-0.45-0.05c-0.134-0.033-0.35-0.05-0.65-0.05c-0.899,0-2.175,0.167-3.824,0.5
		c-1.65,0.333-2.95,0.742-3.9,1.225c-0.95,0.483-2.209,0.925-3.775,1.325c-0.434,0.733-0.649,1.275-0.649,1.625
		s0.149,0.575,0.45,0.675c0.3,0.101,0.866,0.15,1.699,0.15c2.434,0,4.066-0.3,4.9-0.9c0.433-0.333,1.058-0.591,1.875-0.774
		c0.816-0.184,1.607-0.275,2.375-0.275c1.5,0,2.491,0.425,2.975,1.275c0.483,0.85,0.726,1.408,0.726,1.675s-0.175,0.475-0.525,0.625
		c-0.35,0.149-0.858,0.309-1.524,0.475c0,0.567,0.107,1.034,0.324,1.4C58.691,169.953,58.883,170.453,59.05,171.086z M48.85,175.536
		c-1.1,0.199-1.867,0.367-2.3,0.5c-0.434,0.133-0.7,0.283-0.8,0.449c-0.1,0.168-0.15,0.409-0.15,0.726
		c0,0.317,0.051,0.567,0.15,0.75c0.1,0.184,0.217,0.274,0.35,0.274s0.258-0.058,0.375-0.175c0.117-0.116,0.467-0.416,1.051-0.899
		C48.107,176.678,48.55,176.136,48.85,175.536z M48.7,154.836c-1.134,1.233-1.7,2.483-1.7,3.75c0,0.267,0.183,0.399,0.55,0.399
		c0.2,0,0.4-0.05,0.601-0.149c1-0.4,2.183-0.758,3.55-1.075c1.366-0.316,2.375-0.925,3.024-1.825c0.65-0.899,0.976-1.583,0.976-2.05
		c0-0.2-0.134-0.3-0.4-0.3s-0.733,0.333-1.399,1c-0.434,0.434-0.976,0.649-1.625,0.649C51.625,155.235,50.433,155.103,48.7,154.836z
		 M55.05,171.686c0.101-0.532,0.017-0.95-0.25-1.25c-0.367,0.233-0.833,0.718-1.399,1.45
		C54.267,171.819,54.816,171.753,55.05,171.686z"/>
	<path fill="#FFFFFF" d="M53.25,208.137c4-1.333,6.525-2,7.575-2s1.975,0.392,2.774,1.175c0.801,0.783,1.2,1.45,1.2,2
		s-0.317,0.875-0.95,0.975c-0.267,0.034-0.592,0.143-0.975,0.325c-0.384,0.184-1.342,0.742-2.875,1.675l-5.15,3.15
		c1.066,0.667,1.601,1.45,1.601,2.35c0,0.4-0.134,0.7-0.4,0.9c-0.733,0.533-1.7,1.5-2.899,2.9c1.6-0.167,3.041-0.25,4.324-0.25
		s2.309,0.199,3.075,0.6s1.508,1,2.226,1.8c0.716,0.8,1.074,1.518,1.074,2.15c0,0.634-0.559,2.2-1.675,4.7
		c-1.117,2.5-2.009,4.149-2.675,4.949c0.033,0.301,0.05,0.559,0.05,0.775s-0.067,0.375-0.2,0.475c-0.133,0.101-0.383,0.15-0.75,0.15
		l-1.8-0.05c-1.134,0-2.467,0.117-4,0.35c-0.067,0.468-0.1,3.2-0.1,8.2c0,0.666-0.292,1.616-0.875,2.85
		c-0.584,1.233-0.976,1.851-1.175,1.851c-0.2,0-0.468-0.184-0.801-0.55c-1.133-1.301-3.184-2.867-6.149-4.7
		c-0.468-0.3-0.7-0.542-0.7-0.726s0.116-0.274,0.35-0.274s0.592,0.05,1.075,0.149c0.483,0.101,1.116,0.15,1.9,0.15
		c0.782,0,1.433-0.084,1.95-0.25c0.516-0.167,0.816-0.358,0.899-0.575s0.125-0.967,0.125-2.25c0-1.282-0.033-2.258-0.1-2.925
		c-1.4,0.667-2.617,1.217-3.65,1.65s-1.717,0.649-2.05,0.649c-0.634,0-1.15-0.241-1.55-0.725c-0.4-0.483-0.601-1.05-0.601-1.7
		s0.075-1.15,0.226-1.5c0.149-0.35,0.308-0.566,0.475-0.65c0.167-0.082,0.5-0.125,1-0.125s0.941-0.125,1.325-0.375
		c0.383-0.25,0.875-0.641,1.475-1.175c-1.133-0.267-1.925-0.532-2.375-0.8c-0.449-0.267-0.675-0.675-0.675-1.225
		c0-0.551,0.233-1.142,0.7-1.775c0.467-0.633,1-1.1,1.6-1.4c1.801-0.866,2.908-1.449,3.325-1.75c0.417-0.3,0.608-0.683,0.575-1.149
		c-1.834,0.5-4.15,1.533-6.95,3.1c-0.3,0.167-0.6,0.25-0.899,0.25c-0.768,0-1.15-0.433-1.15-1.3c0-0.3,0.116-0.916,0.35-1.85
		s0.65-1.434,1.25-1.5c0.833-0.066,1.767-0.408,2.801-1.025c1.032-0.616,2-1.425,2.899-2.425c-1.467,0.399-2.575,0.742-3.325,1.024
		c-0.75,0.284-1.208,0.426-1.375,0.426c-0.5,0-0.75-0.283-0.75-0.851c0-0.366,0.167-1.008,0.5-1.925
		c0.333-0.916,0.75-1.508,1.25-1.775c3.533-1.766,5.301-3.016,5.301-3.75c0-0.166-0.101-0.366-0.301-0.6
		c-1.867,0.567-3.867,1.259-6,2.075c-2.133,0.817-3.55,1.417-4.25,1.8c-0.7,0.384-1.284,0.575-1.75,0.575
		c-1.1,0-2.042-0.533-2.825-1.601c-0.784-1.066-1.175-1.725-1.175-1.975s0.167-0.375,0.5-0.375l0.65,0.05
		c1.333,0,6.216-1.566,14.65-4.7c-0.134-3.032-0.242-4.949-0.325-5.75c-0.084-0.8-0.226-1.3-0.425-1.5
		c-0.2-0.199-0.301-0.433-0.301-0.699s0.208-0.542,0.625-0.825s0.934-0.425,1.551-0.425c0.616,0,1.058,0.108,1.324,0.324
		c0.267,0.218,0.667,0.768,1.2,1.65c0.533,0.884,0.883,1.7,1.05,2.45S53.316,206.804,53.25,208.137z M47.65,232.236
		c-0.168-0.032-0.393-0.05-0.676-0.05s-0.55,0.084-0.8,0.25c-0.25,0.167-0.375,0.375-0.375,0.625s0.183,0.492,0.55,0.725
		C46.916,233.32,47.35,232.804,47.65,232.236z M54.25,233.587c0.033-1.667-0.134-2.5-0.5-2.5c-0.167,0-0.342,0.267-0.525,0.8
		s-0.292,1.1-0.324,1.7C53.267,233.554,53.717,233.554,54.25,233.587z M53.15,224.986c0,0.601,0.332,1.584,1,2.95l1.5,3
		c0.3,0.634,0.566,0.95,0.8,0.95c0.366,0,0.883-0.726,1.55-2.175c0.666-1.45,1-2.825,1-4.125c0-0.5-0.092-0.833-0.275-1
		s-0.6-0.25-1.25-0.25C56.825,224.337,55.383,224.554,53.15,224.986z"/>
</g>
<g>
</g>
<g>
</g>
<g>
</g>
<g>
</g>
<g>
</g>
<g>
</g>
</svg>
